# xmcd CD database file
#
# Track frame offsets:
#	150
#	16274
#	27003
#	51441
#	62324
#	79176
#	94785
#	109877
#	117343
#	126099
#	138141
#	153657
#	168828
#	184808
#	200741
#	218450
#	235922
#	250772
#	269634
#	285343
#	302704
#
# Disc length: 4333 seconds
#
# Revision: 2
# Processed by: cddbd v1.5.1PL0 Copyright (c) Steve Scherf et al.
# Submitted via: CDex 1.50Beta7
#
DISCID=1f10eb15
DTITLE=Various Artist - Country Blues from Munich
DYEAR=1999
DGENRE=Blues
TTITLE0=Hot Nuts_Big Bill Blues
TTITLE1=Hot Nuts_Out With The Wrong Woman
TTITLE2=Hot Nuts_Can't You Remember
TTITLE3=Peter Krause and Marko Jovanovic_Wonderful Affliction
TTITLE4=Peter Krause and Marko Jovanovic_Hard Road Blues
TTITLE5=Peter Krause and Marko Jovanovic_One Dime Blues
TTITLE6=Willie Salomon_Whinin' Boy
TTITLE7=Willie Salomon_All ByMyself
TTITLE8=Willie Salomon_Make Believe Stunt
TTITLE9=Willie Salomon_Kind Hearted Woman Blues
TTITLE10=Willie Salomon and Peter Krause_Things 'Bout Comin' My Way
TTITLE11=Willie Salomon and Peter Krause_Mean Old Frisco Blues
TTITLE12=Willie Salomon and Peter Krause_Longest Train Blues
TTITLE13=Lowdown_Stack O'Lee
TTITLE14=Lowdown_I Can't Be Satisfied
TTITLE15=Lowdown_If I Had Possession Over Jugdement Day
TTITLE16=Andreas Kilger and Didi Neumann_Ride on Red, Ride On
TTITLE17=Andreas Kilger and Didi Neumann_From Four Till Late
TTITLE18=Andreas Kilger and Didi Neumann_John Henry
TTITLE19=Mano Maniak_Before You Accuse Me
TTITLE20=Mano Maniak_Willin'
EXTD=YEAR: 1999
EXTT0=
EXTT1=
EXTT2=
EXTT3=
EXTT4=
EXTT5=
EXTT6=
EXTT7=
EXTT8=
EXTT9=
EXTT10=
EXTT11=
EXTT12=
EXTT13=
EXTT14=
EXTT15=
EXTT16=
EXTT17=
EXTT18=
EXTT19=
EXTT20=
PLAYORDER=
